<svg xmlns="http://www.w3.org/2000/svg" viewBox="0 0 1024 1024">
  <path d="M254.462 150.823c-23.585 0.759-46.917 9.969-64.286 26.016-6.475 6.124-11.901 13.313-16.369 21.004-5.756 9.997-9.929 20.911-12.283 32.208-3.704 18.099-2.353 37.4 4.944 54.454 1.495 3.494 3.219 6.897 5.183 10.151-11.885 5.333-22.143 13.737-31.054 23.142-15.74 17.009-25.269 39.683-26.181 62.854-1.316 25.175 7.075 50.898 23.662 69.973 8.22 9.544 17.842 17.718 26.721 26.625 94.003 90.813 188.009 181.627 282.012 272.444-56.505 14.083-113.036 28.186-169.547 42.159-26.77 5.805-51.126 21.724-67.449 43.685-14.532 19.424-23.051 43.434-23.269 67.744-0.132 17.369 4.845 34.902 14.924 49.13 7.649 10.87 18.24 19.685 30.43 25.019 10.383 4.622 21.815 6.796 33.169 6.509 16.472 0.183 32.945-0.017 49.421 0.066 127.424-0.052 254.848-0.102 382.269-0.195 38.491-1.452 76.831-11.221 110.718-29.684 23.093-12.635 43.578-29.774 60.895-49.545 26.855-27.062 54.019-53.823 80.481-81.267 8.035-8.832 15.29-18.353 21.986-28.227 29.501-43.852 45.789-96.484 46.059-149.354 0.36-48.744-12.472-97.593-37.3-139.576-11.613-19.837-25.84-38.057-41.432-54.917-54.037-60.837-108.014-121.728-162.178-182.448-15.542-15.944-37.419-25.152-59.566-26.272-26.703-1.43-53.911 8.359-73.316 26.802-7.242 6.921-13.046 15.262-17.431 24.248-1.376 2.766-2.639 5.592-3.801 8.451-28.782-16.701-66.421-16.672-95.227-0.045-10.499 5.966-19.417 14.34-27.209 23.491-3.494 4.066-6.795 8.306-9.745 12.785-57.176-54.917-114.344-109.842-171.526-164.749-16.307-14.519-38.066-22.522-59.847-22.681-1.282-0.035-2.56-0.011-3.843 0.002zM255.696 216.012c7.274-0.016 14.528 2.732 20.271 7.216 2.791 2.185 5.145 4.838 7.742 7.261 88.022 85.665 176.041 171.336 264.129 256.933 2.806 2.652 5.476 5.448 8.373 8.001 9.905 8.265 24.964 9.163 36.030 2.703 9.89-5.794 16.42-16.972 16.391-28.456 0.040-7.343-2.973-14.43-7.454-20.145-2.831-3.691-6.367-6.741-9.59-10.075-16.877-16.847-33.826-33.62-50.347-50.815-2.849-3.018-5.231-6.701-6.14-10.695-0.674-2.912-0.487-5.943 0.694-8.72 1.956-4.962 5.465-9.137 9.326-12.722 5.507-4.995 12.761-8.284 20.164-8.606 7.586-0.373 15.288 2.033 21.316 6.751 4.374 3.699 8.3 7.891 12.371 11.911 10.789 10.819 21.619 21.594 32.451 32.374 8.069 7.998 16.132 15.998 24.385 23.799 10.17 8.007 25.409 8.55 36.235 1.525 10.736-6.662 17.091-19.94 15.078-32.475-1.344-8.061-6.030-15.21-11.857-20.785-5.194-5.194-11.055-10.004-14.561-16.589-2.689-5.332-3.896-11.397-3.744-17.279 0.173-7.258 2.536-14.376 6.921-20.188 4.209-5.68 10.606-9.767 17.329-11.642 6.599-1.866 13.703-1.873 20.251 0.331 3.953 1.352 7.569 3.705 10.312 6.861 4.173 4.423 8.062 9.098 12.141 13.608 54.807 62.025 109.78 123.907 164.506 186.003 15.747 18.167 27.698 39.624 35.571 62.296 6.884 19.898 10.545 40.875 11.204 61.909 0.93 28.531-3.676 57.261-14.060 83.863-10.008 25.737-25.537 49.334-45.235 68.701-20.316 20.45-40.772 40.76-61.179 61.119-6.797 6.728-13.554 13.492-20.608 19.947-24.865 21.629-55.165 36.837-87.306 44.033-14.369 3.251-29.134 4.767-43.885 4.71-21.013 0.216-42.027 0.005-63.045 0.084-119.182-0.015-238.364-0.034-357.545-0.048-4.508-0.825-7.903-4.67-9.361-8.858-2.148-5.819-1.077-12.176 0.388-17.943 3.093-11.528 10.226-21.945 20.185-28.637 6.018-4.127 13.102-6.362 20.229-7.636 15.296-3.136 30.466-6.849 45.703-10.281 59.591-13.694 119.184-27.38 178.733-41.246 1.901-0.467 3.832-0.911 5.543-1.904 5.892-3.060 10.987-7.576 14.967-12.874 4.256-5.767 7.216-12.732 7.323-19.968 0.043-9.149-4.383-18.048-11.27-23.977-21.401-20.59-42.89-41.084-64.317-61.646-93.674-89.728-187.343-179.456-281.017-269.179-5.71-7.093-9.512-15.904-9.977-25.003-0.42-8.221 2.4-16.683 7.747-22.935 3.469-4.054 7.835-7.446 12.671-9.74 5.191-2.421 11.344-3.504 16.873-1.593 5.656 1.925 10.274 5.909 14.621 9.869 14.567 13.788 29.049 27.667 43.58 41.496 64.239 61.25 128.496 122.517 192.792 183.683 3.369 3.37 7.061 6.587 11.537 8.382 11.39 4.93 25.579 2.493 34.589-6.069 8.049-7.528 12.192-19.256 9.925-30.13-1.606-7.73-6.363-14.45-12.071-19.75-17.948-17.043-35.751-34.238-53.609-51.379-74.909-71.99-149.813-143.981-224.722-215.975-5.765-7.143-9.61-16.053-10.018-25.253-0.424-9.936 3.835-20.094 11.561-26.484 5.794-4.781 13.258-7.665 20.769-7.663z"/>
  <path d="M264.478 40.041c-51.455 0.603-102.379 20.602-140.596 55.028-35.533 31.663-60.695 75.106-69.243 122.022-2.669 14.588-3.855 29.44-3.699 44.267-19.644 23.301-34.136 51.049-41.294 80.715-6.865 28.064-7.962 57.501-3.467 86.027 4.463 27.862 14.502 54.821 29.4 78.783 23.165 37.446 57.721 67.839 98.115 85.47 26.383 11.603 55.139 18.051 84.002 17.971 5.662-0.033 11.547-0.525 16.619-3.264 9.379-4.695 16.109-14.355 17.069-24.825 1.44-10.98-2.73-22.77-11.394-29.828-6.622-5.346-15.357-7.601-23.773-7.156-19.369-0.485-38.773-4.385-56.593-12.081-23.681-10.085-44.74-26.409-60.29-46.974-14.016-18.387-23.782-40.098-27.975-62.843-5.569-29.793-2.348-61.273 10.129-88.991 6.564-14.612 15.774-27.955 26.912-39.459 3.527-3.77 5.968-8.545 6.837-13.642 1.171-6.247 0.875-12.635 0.955-18.958 0.035-12.411 0.471-24.9 3.108-37.042 4.326-20.821 12.959-40.757 25.437-58.018 13.722-19.017 32.042-34.657 52.898-45.371 15.454-7.984 32.284-13.155 49.541-15.327 26.090-3.309 53 0.112 77.365 10.101 35.565 14.611 65.023 43.48 80.196 78.842 8.059 18.713 12.212 39.057 12.427 59.415 0.127 6.016 1.132 12.175 4.165 17.46 4.296 7.663 12.019 13.213 20.574 15.093 10.613 2.401 22.456-0.34 30.5-7.788 6.088-5.567 9.327-13.744 9.901-21.876 0.259-3.288-0.068-6.531-0.127-9.81-1.472-36.048-12.106-71.721-30.884-102.542-25.488-42.183-65.502-75.5-111.846-92.403-23.936-8.79-49.462-13.207-74.963-12.991z"/>
</svg>
